<svg width="60" height="60" viewBox="0 0 60 60" fill="none" xmlns="http://www.w3.org/2000/svg">
<path d="M29.9925 19.9957C24.4838 19.9957 19.9882 24.4913 19.9882 30C19.9882 35.5087 24.4838 40.0043 29.9925 40.0043C35.5012 40.0043 39.9968 35.5087 39.9968 30C39.9968 24.4913 35.5012 19.9957 29.9925 19.9957ZM59.9978 30C59.9978 25.8572 60.0353 21.7519 59.8026 17.6166C59.57 12.8134 58.4742 8.55051 54.9619 5.03813C51.442 1.51826 47.1866 0.430021 42.3834 0.197364C38.2406 -0.0352931 34.1353 0.00223234 30 0.00223234C25.8572 0.00223234 21.7519 -0.0352931 17.6166 0.197364C12.8134 0.430021 8.55051 1.52576 5.03814 5.03813C1.51826 8.55801 0.430021 12.8134 0.197364 17.6166C-0.0352931 21.7594 0.00223234 25.8647 0.00223234 30C0.00223234 34.1353 -0.0352931 38.2481 0.197364 42.3834C0.430021 47.1866 1.52576 51.4495 5.03814 54.9619C8.55801 58.4817 12.8134 59.57 17.6166 59.8026C21.7594 60.0353 25.8647 59.9978 30 59.9978C34.1428 59.9978 38.2481 60.0353 42.3834 59.8026C47.1866 59.57 51.4495 58.4742 54.9619 54.9619C58.4817 51.442 59.57 47.1866 59.8026 42.3834C60.0428 38.2481 59.9978 34.1428 59.9978 30V30ZM29.9925 45.3929C21.4742 45.3929 14.5996 38.5183 14.5996 30C14.5996 21.4817 21.4742 14.6071 29.9925 14.6071C38.5108 14.6071 45.3854 21.4817 45.3854 30C45.3854 38.5183 38.5108 45.3929 29.9925 45.3929ZM46.0158 17.5716C44.027 17.5716 42.4209 15.9655 42.4209 13.9767C42.4209 11.9878 44.027 10.3817 46.0158 10.3817C48.0047 10.3817 49.6108 11.9878 49.6108 13.9767C49.6113 14.4489 49.5188 14.9167 49.3383 15.3531C49.1579 15.7895 48.8931 16.1861 48.5591 16.52C48.2252 16.8539 47.8287 17.1187 47.3922 17.2992C46.9558 17.4796 46.4881 17.5722 46.0158 17.5716V17.5716Z" fill="#197672"/>
</svg>
