<svg width="61" height="60" viewBox="0 0 61 60" fill="none" xmlns="http://www.w3.org/2000/svg">
<path d="M55.6662 13.8746C46.6661 -0.000458661 28.291 -4.12549 14.0409 4.49958C0.1658 13.1246 -4.33423 31.8748 4.66584 45.7499L5.41584 46.8749L2.41582 58.125L13.6659 55.125L14.7909 55.875C19.6659 58.5 24.916 60 30.166 60C35.7911 60 41.4161 58.5 46.2912 55.5C60.1663 46.4999 64.2913 28.1248 55.6662 13.8746V13.8746ZM47.7912 42.7499C46.2911 44.9999 44.4161 46.4999 41.7911 46.8749C40.2911 46.8749 38.4161 47.6249 30.916 44.6249C24.541 41.6249 19.2909 36.7498 15.5409 31.1248C13.2909 28.4998 12.1659 25.1247 11.7909 21.7497C11.7909 18.7497 12.9159 16.1247 14.7909 14.2497C15.5409 13.4996 16.2909 13.1246 17.0409 13.1246H18.9159C19.6659 13.1246 20.416 13.1246 20.791 14.6247C21.541 16.4997 23.416 20.9997 23.416 21.3747C23.791 21.7497 23.791 22.4997 23.416 22.8747C23.791 23.6247 23.416 24.3747 23.041 24.7497C22.666 25.1247 22.291 25.8747 21.916 26.2497C21.166 26.6247 20.791 27.3748 21.166 28.1248C22.666 30.3748 24.541 32.6248 26.416 34.4998C28.666 36.3748 30.916 37.8748 33.5411 38.9998C34.2911 39.3748 35.0411 39.3748 35.4161 38.6248C35.7911 37.8748 37.6661 35.9998 38.4161 35.2498C39.1661 34.4998 39.5411 34.4998 40.2911 34.8748L46.2912 37.8748C47.0412 38.2498 47.7912 38.6248 48.1662 38.9998C48.5412 40.1248 48.5412 41.6249 47.7912 42.7499V42.7499Z" fill="#197672"/>
</svg>
